<svg xmlns="http://www.w3.org/2000/svg"  viewBox="0 0 100 100" width="150px" height="150px"><path fill="#c7ede6" d="M87.215,56.71C88.35,54.555,89,52.105,89,49.5c0-6.621-4.159-12.257-10.001-14.478 C78.999,35.015,79,35.008,79,35c0-11.598-9.402-21-21-21c-9.784,0-17.981,6.701-20.313,15.757C36.211,29.272,34.638,29,33,29 c-7.692,0-14.023,5.793-14.89,13.252C12.906,43.353,9,47.969,9,53.5C9,59.851,14.149,65,20.5,65c0.177,0,0.352-0.012,0.526-0.022 C21.022,65.153,21,65.324,21,65.5C21,76.822,30.178,86,41.5,86c6.437,0,12.175-2.972,15.934-7.614C59.612,80.611,62.64,82,66,82 c4.65,0,8.674-2.65,10.666-6.518C77.718,75.817,78.837,76,80,76c6.075,0,11-4.925,11-11C91,61.689,89.53,58.727,87.215,56.71z"/><path fill="#fff" d="M15.405,51H5.5C5.224,51,5,50.776,5,50.5S5.224,50,5.5,50h9.905c0.276,0,0.5,0.224,0.5,0.5 S15.682,51,15.405,51z"/><path fill="#fff" d="M18.5,51h-1c-0.276,0-0.5-0.224-0.5-0.5s0.224-0.5,0.5-0.5h1c0.276,0,0.5,0.224,0.5,0.5 S18.777,51,18.5,51z"/><path fill="#fff" d="M23.491,53H14.5c-0.276,0-0.5-0.224-0.5-0.5s0.224-0.5,0.5-0.5h8.991c0.276,0,0.5,0.224,0.5,0.5 S23.767,53,23.491,53z"/><path fill="#fff" d="M12.5,53h-1c-0.276,0-0.5-0.224-0.5-0.5s0.224-0.5,0.5-0.5h1c0.276,0,0.5,0.224,0.5,0.5 S12.777,53,12.5,53z"/><path fill="#fff" d="M9.5,53h-2C7.224,53,7,52.776,7,52.5S7.224,52,7.5,52h2c0.276,0,0.5,0.224,0.5,0.5S9.777,53,9.5,53 z"/><path fill="#fff" d="M15.5,55h-2c-0.276,0-0.5-0.224-0.5-0.5s0.224-0.5,0.5-0.5h2c0.276,0,0.5,0.224,0.5,0.5 S15.776,55,15.5,55z"/><path fill="#fff" d="M18.5,46c-0.177,0-0.823,0-1,0c-0.276,0-0.5,0.224-0.5,0.5c0,0.276,0.224,0.5,0.5,0.5 c0.177,0,0.823,0,1,0c0.276,0,0.5-0.224,0.5-0.5C19,46.224,18.776,46,18.5,46z"/><path fill="#fff" d="M18.5,48c-0.177,0-4.823,0-5,0c-0.276,0-0.5,0.224-0.5,0.5c0,0.276,0.224,0.5,0.5,0.5 c0.177,0,4.823,0,5,0c0.276,0,0.5-0.224,0.5-0.5C19,48.224,18.776,48,18.5,48z"/><path fill="#fff" d="M23.5,50c-0.177,0-2.823,0-3,0c-0.276,0-0.5,0.224-0.5,0.5c0,0.276,0.224,0.5,0.5,0.5 c0.177,0,2.823,0,3,0c0.276,0,0.5-0.224,0.5-0.5C24,50.224,23.776,50,23.5,50z"/><path fill="#fff" d="M84.5,44h-10c-0.276,0-0.5-0.224-0.5-0.5s0.224-0.5,0.5-0.5h10c0.276,0,0.5,0.224,0.5,0.5 S84.776,44,84.5,44z"/><path fill="#fff" d="M88.5,44h-2c-0.276,0-0.5-0.224-0.5-0.5s0.224-0.5,0.5-0.5h2c0.276,0,0.5,0.224,0.5,0.5 S88.776,44,88.5,44z"/><path fill="#fff" d="M93.5,46h-10c-0.276,0-0.5-0.224-0.5-0.5s0.224-0.5,0.5-0.5h10c0.276,0,0.5,0.224,0.5,0.5 S93.777,46,93.5,46z"/><path fill="#fff" d="M81.5,46h-1c-0.276,0-0.5-0.224-0.5-0.5s0.224-0.5,0.5-0.5h1c0.276,0,0.5,0.224,0.5,0.5 S81.776,46,81.5,46z"/><path fill="#fff" d="M78.375,46H76.5c-0.276,0-0.5-0.224-0.5-0.5s0.224-0.5,0.5-0.5h1.875c0.276,0,0.5,0.224,0.5,0.5 S78.651,46,78.375,46z"/><path fill="#fff" d="M87.5,42h-5c-0.276,0-0.5-0.224-0.5-0.5s0.224-0.5,0.5-0.5h5c0.276,0,0.5,0.224,0.5,0.5 S87.777,42,87.5,42z"/><path fill="#fff" d="M84.5,48h-2c-0.276,0-0.5-0.224-0.5-0.5s0.224-0.5,0.5-0.5h2c0.276,0,0.5,0.224,0.5,0.5 S84.776,48,84.5,48z"/><path fill="#fdfcef" d="M28.849,79.5c0,0,11.691,0,11.762,0c2.7,0,4.888-2.189,4.888-4.889 c0-2.355-1.666-4.321-3.884-4.784c0.026-0.206,0.043-0.415,0.043-0.628c0-2.796-2.267-5.063-5.063-5.063 c-1.651,0-3.113,0.794-4.037,2.017c-0.236-3.113-3.017-5.514-6.27-5.116c-2.379,0.291-4.346,2.13-4.784,4.486 c-0.14,0.756-0.126,1.489,0.014,2.177c-0.638-0.687-1.546-1.119-2.557-1.119c-1.85,0-3.361,1.441-3.48,3.261 c-0.84-0.186-1.754-0.174-2.717,0.188c-1.84,0.691-3.15,2.423-3.227,4.387c-0.109,2.789,2.12,5.085,4.885,5.085 c0.21,0,0.948,0,1.118,0h10.151"/><path fill="#472b29" d="M40.611,80H28.85c-0.276,0-0.5-0.224-0.5-0.5s0.224-0.5,0.5-0.5h11.762 C43.031,79,45,77.031,45,74.611c0-2.067-1.466-3.873-3.486-4.295c-0.254-0.053-0.426-0.292-0.394-0.55 c0.022-0.186,0.039-0.375,0.039-0.567c0-2.516-2.047-4.563-4.563-4.563c-1.438,0-2.765,0.663-3.638,1.818 c-0.125,0.166-0.342,0.237-0.539,0.179c-0.2-0.059-0.342-0.235-0.358-0.442c-0.104-1.377-0.778-2.671-1.85-3.549 c-1.084-0.887-2.452-1.279-3.861-1.109c-2.165,0.265-3.955,1.943-4.353,4.081c-0.124,0.667-0.12,1.335,0.013,1.986 c0.044,0.22-0.062,0.442-0.262,0.544c-0.197,0.102-0.442,0.061-0.595-0.104c-0.574-0.619-1.353-0.959-2.19-0.959 c-1.568,0-2.878,1.227-2.98,2.793c-0.01,0.146-0.082,0.28-0.199,0.367c-0.116,0.087-0.268,0.119-0.407,0.088 c-0.844-0.186-1.64-0.131-2.434,0.167c-1.669,0.626-2.836,2.209-2.903,3.938c-0.047,1.207,0.387,2.35,1.222,3.218 C12.096,78.522,13.22,79,14.424,79h11.27c0.276,0,0.5,0.224,0.5,0.5s-0.224,0.5-0.5,0.5h-11.27c-1.479,0-2.858-0.587-3.884-1.653 s-1.559-2.469-1.501-3.951c0.084-2.126,1.511-4.069,3.552-4.836c0.8-0.3,1.628-0.4,2.468-0.298 c0.377-1.823,1.996-3.182,3.904-3.182c0.685,0,1.354,0.179,1.944,0.51c-0.001-0.386,0.035-0.773,0.107-1.159 c0.476-2.562,2.619-4.573,5.214-4.891c1.688-0.206,3.321,0.267,4.616,1.328c1.004,0.823,1.716,1.951,2.038,3.193 c1.012-0.916,2.318-1.425,3.713-1.425c3.067,0,5.563,2.496,5.563,5.563c0,0.083-0.002,0.166-0.007,0.249 C44.406,70.12,46,72.224,46,74.611C46,77.583,43.583,80,40.611,80z"/><path fill="#fdfcef" d="M26.016,68.731c-1.808-0.119-3.365,1.13-3.476,2.789c-0.014,0.206-0.005,0.409,0.025,0.606 c-0.349-0.394-0.865-0.661-1.458-0.7c-1.085-0.071-2.022,0.645-2.158,1.62c-0.197-0.054-0.403-0.09-0.616-0.104 c-1.582-0.104-2.944,0.989-3.042,2.441"/><path fill="#472b29" d="M15.292,75.632c-0.006,0-0.011,0-0.017,0c-0.138-0.009-0.242-0.128-0.232-0.266 c0.106-1.586,1.563-2.783,3.308-2.674c0.135,0.009,0.271,0.027,0.408,0.053c0.272-0.967,1.255-1.639,2.365-1.568 c0.426,0.028,0.824,0.161,1.163,0.382c0.001-0.019,0.002-0.037,0.004-0.055c0.12-1.794,1.8-3.146,3.742-3.022 c0.138,0.009,0.242,0.128,0.232,0.266c-0.008,0.137-0.106,0.245-0.266,0.233c-1.658-0.104-3.108,1.038-3.211,2.557 c-0.012,0.186-0.004,0.372,0.023,0.551c0.017,0.11-0.041,0.217-0.141,0.265c-0.102,0.046-0.221,0.022-0.294-0.061 c-0.317-0.358-0.786-0.583-1.287-0.616c-0.959-0.064-1.774,0.555-1.893,1.405c-0.011,0.071-0.051,0.134-0.11,0.174 s-0.135,0.052-0.203,0.033c-0.189-0.051-0.38-0.084-0.567-0.096c-1.452-0.099-2.687,0.896-2.776,2.208 C15.532,75.531,15.423,75.632,15.292,75.632z"/><g><path fill="#fdfcef" d="M42.591,70.4c-1.699-0.801-3.664-0.234-4.389,1.267c-0.09,0.186-0.157,0.379-0.201,0.574"/><path fill="#472b29" d="M38.001,72.49c-0.019,0-0.037-0.002-0.057-0.006c-0.134-0.031-0.218-0.166-0.187-0.3 c0.05-0.216,0.123-0.427,0.219-0.625c0.783-1.622,2.9-2.243,4.721-1.384c0.125,0.059,0.179,0.208,0.12,0.333 c-0.06,0.125-0.21,0.177-0.333,0.12c-1.575-0.743-3.394-0.226-4.057,1.149c-0.08,0.165-0.142,0.34-0.184,0.521 C38.218,72.412,38.115,72.49,38.001,72.49z"/></g><g><path fill="#fdfcef" d="M83.679,70.5c2.2,0,3.821-1.674,3.821-3.739c0-1.802-1.302-3.305-3.035-3.66 c0.02-0.158,0.034-0.317,0.034-0.48c0-2.139-1.772-3.873-3.957-3.873c-1.29,0-2.433,0.607-3.155,1.543 c-0.185-2.381-2.358-4.218-4.9-3.913c-1.859,0.223-3.397,1.629-3.739,3.431c-0.11,0.578-0.098,1.139,0.011,1.665 c-0.498-0.525-1.208-0.856-1.998-0.856c-1.446,0-2.627,1.102-2.72,2.494c-0.657-0.142-1.371-0.133-2.123,0.143 c-1.438,0.528-2.462,1.853-2.522,3.356c-0.085,2.133,1.657,3.889,3.818,3.889c0.164,0,0.741,0,0.874,0 C64.086,70.5,82.125,70.5,83.679,70.5z M73.661,70.5h0.36"/><path fill="#472b29" d="M83.679,71h-3.54c-0.276,0-0.5-0.224-0.5-0.5s0.224-0.5,0.5-0.5h3.54 C85.51,70,87,68.547,87,66.761c0-1.524-1.108-2.857-2.637-3.17c-0.257-0.052-0.429-0.294-0.396-0.554 c0.018-0.137,0.03-0.275,0.03-0.416c0-1.86-1.551-3.373-3.457-3.373c-1.093,0-2.099,0.491-2.76,1.348 c-0.125,0.165-0.343,0.232-0.538,0.174c-0.198-0.059-0.34-0.234-0.355-0.44c-0.079-1.019-0.565-1.943-1.37-2.603 c-0.828-0.68-1.886-0.984-2.973-0.853c-1.646,0.197-3.006,1.442-3.307,3.028c-0.094,0.494-0.091,0.988,0.009,1.471 c0.046,0.219-0.06,0.441-0.258,0.544c-0.196,0.104-0.439,0.064-0.595-0.099c-0.428-0.451-1.008-0.7-1.635-0.7 c-1.17,0-2.146,0.891-2.221,2.027c-0.01,0.145-0.082,0.279-0.198,0.366c-0.115,0.088-0.263,0.12-0.406,0.089 c-0.639-0.139-1.241-0.097-1.847,0.124c-1.262,0.464-2.144,1.632-2.193,2.906c-0.035,0.875,0.282,1.708,0.895,2.345 C61.424,69.636,62.284,70,63.212,70h8.808c0.276,0,0.5,0.224,0.5,0.5s-0.224,0.5-0.5,0.5h-8.808 c-1.185,0-2.331-0.485-3.144-1.332c-0.803-0.835-1.219-1.928-1.174-3.078c0.066-1.674,1.212-3.203,2.849-3.805 c0.612-0.225,1.245-0.307,1.881-0.245c0.345-1.396,1.629-2.424,3.136-2.424c0.493,0,0.977,0.113,1.413,0.323 c0.01-0.242,0.037-0.484,0.083-0.726c0.381-2.009,2.096-3.585,4.17-3.834c1.364-0.16,2.686,0.218,3.727,1.073 c0.747,0.613,1.278,1.409,1.546,2.301c0.791-0.648,1.785-1.006,2.843-1.006c2.458,0,4.457,1.961,4.457,4.373 c0,0.034-0.001,0.068-0.002,0.103C86.761,63.278,88,64.911,88,66.761C88,69.098,86.062,71,83.679,71z M74.021,71h-0.359 c-0.276,0-0.5-0.224-0.5-0.5s0.224-0.5,0.5-0.5h0.359c0.276,0,0.5,0.224,0.5,0.5S74.297,71,74.021,71z"/><path fill="#472b29" d="M81.972,65.197c-0.018,0-0.036-0.002-0.055-0.006c-0.135-0.03-0.22-0.164-0.189-0.299 c0.038-0.167,0.095-0.329,0.17-0.479c0.604-1.223,2.273-1.673,3.721-1.006c0.126,0.058,0.181,0.207,0.122,0.332 c-0.057,0.125-0.209,0.179-0.331,0.122c-1.204-0.556-2.579-0.21-3.063,0.774c-0.058,0.115-0.102,0.238-0.13,0.367 C82.189,65.118,82.086,65.197,81.972,65.197z"/><g><path fill="#472b29" d="M76.812,71h-1.107c-0.276,0-0.5-0.224-0.5-0.5s0.224-0.5,0.5-0.5h1.107c0.276,0,0.5,0.224,0.5,0.5 S77.089,71,76.812,71z"/></g></g><path fill="#3b3634" d="M47.322,64.108c-2.698-3.373-10.793-10.456-13.154-9.107c-1.242,0.71,2.361,3.373,3.71,3.71	c-2.698,1.349-9.781-1.686-10.119-10.793c-0.437-11.802,15.462-25.09,30.223-28.175c0.512-0.107,1.052,0.023,1.45,0.362	c8.764,7.44,11.111,24.672,10.933,30.293c-0.024,0.754-0.401,1.44-1.016,1.877c-4.707,3.335-11.235,7.786-11.235,7.786	L47.322,64.108z"/><g><path fill="#d6213f" d="M49.345,60.735c-2.959-0.986-7.84-4.215-11.208-9.375c-0.169-0.26-0.245-0.567-0.212-0.875 c0.78-7.198,4.55-22.451,18.87-27.316c0.392-0.133,0.838-0.043,1.136,0.244c5.645,5.42,9.425,16.124,9.62,26.376 c0.011,0.56-0.214,1.095-0.624,1.476c-2.581,2.393-8.679,5.878-10.836,7.11C52.718,59.385,49.345,60.735,49.345,60.735z"/><path fill="#472b29" d="M49.345,60.984c-0.027,0-0.053-0.004-0.079-0.013c-3.172-1.058-8.073-4.474-11.338-9.476 c-0.201-0.307-0.29-0.676-0.251-1.038c0.556-5.129,3.571-22.271,19.038-27.526c0.485-0.166,1.03-0.046,1.39,0.301 c5.6,5.376,9.497,16.046,9.697,26.551c0.012,0.631-0.245,1.237-0.705,1.664c-2.602,2.413-8.617,5.85-10.881,7.144 c-3.376,1.02-6.744,2.362-6.777,2.376C49.408,60.979,49.377,60.984,49.345,60.984z M57.162,23.357 c-0.096,0-0.193,0.016-0.286,0.047c-15.187,5.16-18.154,22.053-18.702,27.107c-0.027,0.247,0.035,0.5,0.172,0.711 c3.171,4.856,7.898,8.182,10.992,9.245c0.55-0.217,3.633-1.419,6.681-2.333c1.983-1.141,8.177-4.681,10.737-7.055 c0.355-0.329,0.554-0.799,0.544-1.287c-0.197-10.381-4.032-20.91-9.543-26.2C57.599,23.439,57.383,23.357,57.162,23.357z"/></g><g><path fill="#fff" d="M65.922,76.25H43.546l5.594-25.008h-6.252l3.949-1.974c0,0-3.291-2.632-3.291-8.226 s4.936-9.872,6.252-10.53c1.316-0.658,6.171-1.49,8.556,0c2.632,1.645,5.923,7.568,5.923,10.859c0,2.303-2.303,6.581-3.62,7.897 c2.303,0.987,4.607,1.645,4.607,1.645L56.708,51.9c0,0,0,6.252,0.987,7.239c0.658,0.658,1.974,1.645,2.962,1.645 c1.316-1.316,2.632-2.962,2.632-2.962L65.922,76.25z"/><path fill="#472b29" d="M65.922,76.75H43.546c-0.152,0-0.295-0.069-0.39-0.188c-0.095-0.118-0.131-0.273-0.098-0.422 l5.458-24.399h-5.628c-0.232,0-0.434-0.159-0.487-0.385c-0.053-0.227,0.056-0.459,0.263-0.562l3.314-1.656 c-0.981-1.048-2.933-3.686-2.933-8.097c0-5.865,5.089-10.258,6.528-10.978c1.286-0.644,6.393-1.636,9.044,0.023 c2.82,1.763,6.158,7.879,6.158,11.283c0,2.177-1.854,5.903-3.284,7.703c2.02,0.814,3.888,1.353,3.909,1.358 c0.229,0.065,0.38,0.283,0.361,0.521c-0.02,0.237-0.204,0.429-0.441,0.456l-8.11,0.936c0.031,2.805,0.346,5.947,0.838,6.44 c0.665,0.665,1.694,1.368,2.416,1.482c1.227-1.251,2.422-2.742,2.435-2.758c0.125-0.155,0.329-0.221,0.522-0.17 c0.192,0.053,0.335,0.214,0.363,0.412l2.632,18.428c0.021,0.144-0.022,0.288-0.117,0.397C66.205,76.688,66.067,76.75,65.922,76.75z M44.17,75.75h21.175l-2.391-16.74c-0.508,0.597-1.222,1.406-1.944,2.128c-0.094,0.094-0.221,0.146-0.354,0.146 c-1.202,0-2.649-1.126-3.315-1.792c-1.052-1.052-1.134-6.077-1.134-7.593c0-0.254,0.19-0.468,0.443-0.497l6.269-0.723 c-0.74-0.261-1.597-0.583-2.46-0.952c-0.152-0.065-0.263-0.202-0.294-0.365c-0.032-0.163,0.02-0.331,0.137-0.448 c1.307-1.307,3.473-5.445,3.473-7.544c0-3.086-3.136-8.841-5.688-10.436c-2.143-1.34-6.768-0.627-8.067,0.023 c-1.265,0.633-5.976,4.763-5.976,10.083c0,5.265,3.073,7.812,3.104,7.837c0.132,0.107,0.202,0.274,0.183,0.443 s-0.121,0.317-0.273,0.394l-2.054,1.026h4.133c0.152,0,0.295,0.069,0.39,0.188c0.095,0.118,0.131,0.273,0.098,0.422L44.17,75.75z"/></g><g><polygon fill="#3b3634" points="54.405,46.568 55.079,50.616 52.381,50.616"/><path fill="#472b29" d="M55.079,50.866h-2.698c-0.086,0-0.167-0.045-0.213-0.118c-0.045-0.074-0.049-0.166-0.011-0.243 l2.024-4.048c0.049-0.097,0.157-0.153,0.261-0.136c0.107,0.016,0.192,0.1,0.209,0.206l0.674,4.048 c0.012,0.072-0.008,0.146-0.056,0.202C55.222,50.834,55.153,50.866,55.079,50.866z M52.785,50.366h1.999l-0.5-2.998L52.785,50.366z"/></g><g><path fill="#3b3634" d="M50.357,39.823c1.012,0,2.867,0.675,2.867,3.204c0,2.53-2.192,3.542-3.204,3.542 s-3.036-1.012-3.036-3.373C46.984,41.509,48.334,39.823,50.357,39.823z"/><path fill="#472b29" d="M50.02,46.818c-1.11,0-3.286-1.094-3.286-3.623c0-1.742,1.385-3.623,3.623-3.623 c1.078,0,3.117,0.722,3.117,3.455C53.474,45.674,51.187,46.818,50.02,46.818z M50.357,40.072c-1.929,0-3.123,1.621-3.123,3.123 c0,2.18,1.845,3.123,2.786,3.123c0.757,0,2.954-0.811,2.954-3.291C52.974,40.694,51.329,40.072,50.357,40.072z"/></g><g><path fill="#3b3634" d="M55.079,40.497c0-1.686,1.012-4.385,3.036-4.385s3.036,2.024,3.036,3.71s-1.012,4.722-3.036,4.722 S55.079,42.858,55.079,40.497z"/><path fill="#472b29" d="M58.115,44.795c-2.057,0-3.286-1.606-3.286-4.298c0-1.943,1.142-4.635,3.286-4.635 c2.134,0,3.286,2.04,3.286,3.96C61.4,41.502,60.408,44.795,58.115,44.795z M58.115,36.362c-1.793,0-2.786,2.445-2.786,4.135 c0,2.378,1.042,3.798,2.786,3.798c1.829,0,2.786-2.912,2.786-4.473C60.9,38.145,59.924,36.362,58.115,36.362z"/></g><g><path fill="#3b3634" d="M46.647,39.823c0-2.024,0.675-5.397,4.385-7.42c0.337,0.337,1.349,1.686,1.349,1.686 C51.032,34.426,47.659,35.775,46.647,39.823z"/><path fill="#472b29" d="M46.647,40.072c-0.01,0-0.02-0.001-0.031-0.002c-0.125-0.016-0.219-0.122-0.219-0.248 c0-1.934,0.586-5.497,4.515-7.64c0.096-0.053,0.217-0.035,0.296,0.043c0.346,0.346,1.331,1.657,1.373,1.713 c0.05,0.067,0.063,0.155,0.035,0.234c-0.028,0.079-0.094,0.139-0.175,0.158c-0.742,0.186-4.494,1.323-5.552,5.552 C46.861,39.995,46.76,40.072,46.647,40.072z M50.981,32.717c-2.504,1.431-3.508,3.487-3.882,5.204 c1.377-2.628,3.818-3.646,4.862-3.973C51.695,33.6,51.25,33.023,50.981,32.717z"/></g><g><path fill="#3b3634" d="M56.429,31.39l-1.012,1.686c1.349,1.349,3.373,2.361,6.071,2.024 C60.139,34.763,57.44,33.751,56.429,31.39z"/><path fill="#472b29" d="M60.447,35.417c-2.483,0-4.181-1.137-5.207-2.163c-0.081-0.081-0.097-0.207-0.038-0.306l1.012-1.687 c0.048-0.08,0.13-0.137,0.231-0.12c0.094,0.006,0.176,0.064,0.213,0.15c1.044,2.437,4.007,3.346,4.89,3.566 c0.117,0.028,0.196,0.137,0.189,0.257s-0.099,0.219-0.219,0.233C61.146,35.396,60.789,35.417,60.447,35.417z M55.733,33.036 c0.916,0.868,2.344,1.776,4.366,1.872c-1.217-0.491-2.826-1.404-3.693-2.993L55.733,33.036z"/></g><path fill="#472b29" d="M54.067,63.933c-1.457,0-2.647-0.533-3.538-1.585c-2.757-3.254-1.667-10.369-1.534-11.17	c0.045-0.273,0.304-0.461,0.575-0.411c0.272,0.045,0.457,0.303,0.411,0.575c-0.05,0.301-1.197,7.399,1.311,10.36	c0.702,0.828,1.61,1.23,2.775,1.23c3.47,0,5.796-2.057,6.427-2.687c0.195-0.195,0.512-0.195,0.707,0s0.195,0.512,0,0.707	C60.305,61.849,57.816,63.933,54.067,63.933z"/><path fill="#472b29" d="M49.488,64.129c-0.062,0-0.125-0.012-0.186-0.036c-0.256-0.103-0.381-0.394-0.279-0.649l2.02-5.049	c0.103-0.256,0.395-0.38,0.65-0.278c0.256,0.103,0.381,0.394,0.279,0.649l-2.02,5.049C49.875,64.01,49.687,64.129,49.488,64.129z"/><path fill="#472b29" d="M53.528,67.158c-0.009,0-0.018,0-0.027-0.001c-0.275-0.015-0.487-0.25-0.473-0.525l0.378-7.068	c0.015-0.276,0.248-0.509,0.526-0.473c0.275,0.015,0.487,0.25,0.473,0.525l-0.378,7.068C54.012,66.951,53.792,67.158,53.528,67.158z"/><path fill="#472b29" d="M58.071,65.644c-0.204,0-0.396-0.126-0.47-0.329l-2.019-5.554c-0.095-0.26,0.04-0.547,0.299-0.641	c0.26-0.095,0.546,0.039,0.641,0.299l2.019,5.554c0.095,0.26-0.04,0.547-0.299,0.641C58.185,65.634,58.127,65.644,58.071,65.644z"/><path fill="#472b29" d="M58.151,46.721c-1.329,0-2.334-0.747-2.912-1.324c-0.098-0.098-0.098-0.256,0-0.354	s0.256-0.098,0.354,0c0.919,0.916,2.431,1.771,4.421,0.634c0.118-0.068,0.272-0.028,0.341,0.093c0.068,0.12,0.027,0.272-0.093,0.341	C59.493,46.551,58.785,46.721,58.151,46.721z"/><path fill="#472b29" d="M48.671,48.505c-0.138,0-0.25-0.112-0.25-0.25s0.112-0.25,0.25-0.25c0.675,0,2.257,0,3.533-1.276	c0.098-0.098,0.256-0.098,0.354,0s0.098,0.256,0,0.354C51.135,48.505,49.345,48.505,48.671,48.505z"/><path fill="#472b29" d="M66.21,76.95H43.274c-0.212,0-0.414-0.097-0.546-0.263s-0.183-0.383-0.137-0.59l2.907-12.996	c-4.075-4.321-9.314-7.963-10.834-7.554c0.366,0.703,2.426,2.245,3.383,2.484c0.284,0.07,0.495,0.312,0.526,0.603	c0.032,0.291-0.121,0.571-0.383,0.702c-1.407,0.703-3.585,0.404-5.55-0.761c-1.594-0.945-5.331-3.873-5.581-10.632	c-0.464-12.549,16.165-25.833,30.78-28.888c0.724-0.146,1.49,0.041,2.046,0.515l0,0c9.031,7.666,11.355,25.294,11.18,30.849	c-0.031,0.974-0.509,1.857-1.312,2.425c-1.806,1.279-3.878,2.723-5.751,4.018c0.107,0.105,0.18,0.245,0.202,0.4l2.698,18.889	c0.029,0.2-0.031,0.404-0.164,0.558S66.413,76.95,66.21,76.95z M44.148,75.55h21.254l-2.362-16.535	c-0.491,0.567-1.109,1.254-1.732,1.878c-0.131,0.131-0.31,0.205-0.495,0.205c-0.577,0-1.244-0.229-1.982-0.678	c-0.044-0.026-0.085-0.059-0.123-0.095l-0.303-0.294c-0.151-0.146-0.228-0.353-0.21-0.562c0.018-0.209,0.128-0.399,0.302-0.519	c1.907-1.305,6.742-4.622,10.447-7.248c0.442-0.312,0.705-0.796,0.721-1.327c0.169-5.373-2.048-22.403-10.687-29.737l0,0	c-0.23-0.194-0.549-0.274-0.854-0.21c-13.791,2.882-30.1,15.775-29.667,27.464c0.225,6.07,3.499,8.652,4.896,9.48	c0.758,0.449,1.486,0.719,2.135,0.849c-1.097-0.768-2.148-1.775-2.266-2.628c-0.069-0.498,0.154-0.947,0.597-1.199	c2.996-1.719,10.981,5.893,12.955,8.024c0.156,0.169,0.22,0.403,0.169,0.628L44.148,75.55z M60.136,59.525	c0.15,0.064,0.29,0.111,0.417,0.14c0.375-0.385,0.745-0.79,1.078-1.166C61.076,58.881,60.571,59.227,60.136,59.525z"/><polygon fill="#472b29" points="59.125,59.5 62.875,57.5 60.625,60.625"/></svg>